<?xml version="1.0" standalone="no"?>
<!DOCTYPE svg PUBLIC "-//W3C//DTD SVG 20010904//EN"
 "http://www.w3.org/TR/2001/REC-SVG-20010904/DTD/svg10.dtd">
<svg version="1.0" xmlns="http://www.w3.org/2000/svg"
 width="512.000000pt" height="512.000000pt" viewBox="0 0 512.000000 512.000000"
 preserveAspectRatio="xMidYMid meet">

<g transform="translate(0.000000,512.000000) scale(0.100000,-0.100000)"
fill="#000000" stroke="none">
<path d="M4577 4202 c-21 -23 -22 -56 -1 -76 34 -34 84 -11 84 39 0 51 -50 73
-83 37z"/>
<path d="M4422 4154 c-24 -17 -30 -62 -10 -82 37 -37 113 12 88 57 -9 17 -39
41 -52 41 -2 0 -14 -7 -26 -16z"/>
<path d="M4540 4074 c-118 -35 -217 -64 -219 -64 -3 0 0 5 7 12 7 7 12 24 12
38 0 34 -17 50 -52 50 -18 0 -33 -8 -44 -25 -15 -23 -15 -27 0 -50 9 -14 26
-25 37 -25 17 0 18 -3 9 -20 -18 -34 -85 -71 -172 -96 -686 -193 -1878 -514
-1908 -514 -56 0 -84 29 -77 79 17 112 28 246 23 275 -14 74 -133 149 -223
140 -102 -10 -266 -104 -407 -234 -111 -102 -144 -115 -281 -114 -131 1 -319
32 -465 76 -91 28 -119 32 -215 31 -278 -1 -420 -104 -487 -350 -30 -111 -29
-269 1 -383 26 -100 91 -241 151 -331 134 -198 339 -396 483 -465 100 -48 165
-59 250 -44 96 17 257 100 194 100 -8 0 -41 14 -74 30 -109 54 -188 163 -214
293 -28 139 54 321 179 394 41 25 61 28 220 40 198 14 217 21 275 101 19 26
62 102 96 169 59 117 64 122 106 139 65 25 114 13 240 -58 56 -32 181 -32 280
0 39 13 538 155 1110 317 572 162 1066 304 1097 315 32 11 70 20 85 20 69 0
159 -48 191 -102 18 -30 30 -34 145 -42 l67 -5 0 61 0 61 -85 92 c-69 75 -85
99 -85 124 0 23 -4 31 -17 30 -10 0 -115 -30 -233 -65z"/>
<path d="M1677 2726 c-79 -22 -127 -63 -167 -140 -32 -62 -35 -77 -38 -171 -7
-176 38 -273 153 -330 54 -27 69 -30 150 -29 96 1 153 17 218 60 l37 24 0 145
0 145 -120 0 -120 0 0 -60 0 -60 60 0 60 0 0 -54 c0 -54 0 -54 -40 -70 -60
-24 -140 -21 -180 7 -55 36 -73 79 -78 176 -5 105 9 161 52 209 29 32 40 36
93 40 52 4 62 1 90 -22 17 -14 34 -37 37 -51 5 -20 11 -24 34 -20 15 2 44 7
65 10 42 7 46 19 21 68 -23 45 -63 86 -107 109 -50 25 -157 32 -220 14z"/>
<path d="M2170 2523 c0 -275 13 -343 77 -407 55 -56 161 -78 268 -56 50 10 68
20 106 59 27 26 52 63 59 86 8 25 15 126 17 278 l5 237 -71 0 -71 0 0 -225 c0
-172 -3 -234 -14 -260 -39 -93 -199 -84 -225 12 -6 21 -11 134 -11 256 l0 217
-70 0 -70 0 0 -197z"/>
<path d="M2860 2395 l0 -325 65 0 65 0 0 325 0 325 -65 0 -65 0 0 -325z"/>
<path d="M3130 2660 l0 -60 95 0 95 0 0 -265 0 -265 70 0 70 0 0 265 0 265
100 0 100 0 0 60 0 60 -265 0 -265 0 0 -60z"/>
<path d="M3785 2458 c-54 -145 -108 -291 -121 -325 l-24 -63 69 0 68 0 28 75
27 75 113 0 112 0 28 -75 27 -75 70 0 c68 0 70 1 64 23 -3 12 -57 157 -119
322 l-113 300 -65 3 -65 3 -99 -263z m196 5 c17 -54 34 -104 37 -110 3 -10
-15 -13 -72 -13 -42 0 -76 4 -76 8 0 17 69 212 75 212 2 0 18 -44 36 -97z"/>
<path d="M4380 2396 l0 -326 65 0 65 0 0 120 0 120 63 0 64 0 56 -120 56 -120
71 0 c38 0 70 2 70 5 0 3 -29 63 -65 135 l-65 129 31 22 c64 45 88 162 50 244
-41 89 -89 107 -298 113 l-163 4 0 -326z m319 180 c15 -14 21 -31 21 -62 0
-65 -30 -84 -131 -84 l-79 0 0 86 0 86 84 -3 c65 -3 89 -8 105 -23z"/>
<path d="M508 1856 c-96 -26 -138 -76 -138 -167 0 -64 25 -111 75 -140 17 -10
80 -28 140 -39 128 -26 159 -39 180 -80 35 -67 8 -152 -58 -183 -40 -19 -133
-22 -189 -7 -46 13 -97 63 -105 101 -4 24 -11 29 -34 29 -34 0 -35 -10 -10
-65 34 -74 91 -108 197 -120 160 -18 274 58 274 185 0 54 -31 113 -74 140 -20
12 -79 30 -133 41 -54 11 -112 24 -129 29 -69 23 -99 94 -70 163 23 55 84 80
182 75 83 -4 117 -22 149 -81 16 -29 24 -35 40 -31 28 9 28 8 12 46 -40 95
-173 141 -309 104z"/>
<path d="M1160 1855 c-59 -19 -125 -75 -154 -134 -70 -137 -54 -346 34 -452
78 -96 263 -115 368 -39 41 30 92 116 92 157 0 17 -6 23 -23 23 -19 0 -26 -8
-36 -42 -29 -98 -100 -144 -211 -136 -81 6 -134 43 -175 123 -28 55 -30 66
-30 170 0 104 2 115 30 170 42 82 94 118 179 123 100 7 171 -40 198 -130 8
-27 16 -37 26 -33 7 3 20 5 28 5 11 0 10 10 -6 53 -47 126 -180 185 -320 142z"/>
<path d="M2509 1857 c-81 -23 -133 -71 -176 -162 -24 -53 -27 -72 -28 -165 0
-128 20 -191 83 -261 55 -62 112 -84 212 -84 128 1 214 62 261 184 32 81 31
233 -1 315 -27 72 -81 133 -137 158 -55 24 -156 31 -214 15z m176 -56 c115
-53 172 -219 131 -380 -34 -134 -118 -198 -246 -189 -121 9 -197 101 -207 254
-14 203 75 334 226 334 33 0 72 -8 96 -19z"/>
<path d="M3229 1857 c-81 -23 -133 -71 -176 -162 -24 -53 -27 -72 -28 -165 0
-128 20 -191 83 -261 55 -62 112 -84 212 -84 128 1 214 62 261 184 32 81 31
233 -1 315 -27 72 -81 133 -137 158 -55 24 -156 31 -214 15z m176 -56 c115
-53 172 -219 131 -380 -34 -134 -118 -198 -246 -189 -121 9 -197 101 -207 254
-14 203 75 334 226 334 33 0 72 -8 96 -19z"/>
<path d="M1670 1525 l0 -325 25 0 25 0 0 155 0 155 185 0 185 0 0 -155 0 -155
25 0 25 0 0 325 0 325 -25 0 -25 0 0 -145 0 -145 -185 0 -185 0 0 145 0 145
-25 0 -25 0 0 -325z"/>
<path d="M3770 1525 l0 -325 194 0 c200 0 206 1 206 41 0 5 -75 9 -175 9
l-175 0 0 300 0 300 -25 0 -25 0 0 -325z"/>
</g>
</svg>
