<svg xmlns="http://www.w3.org/2000/svg" width="682.667" height="682.667" version="1.0" viewBox="0 0 512 512"><path d="M457.7 91.8c-2.1 2.3-2.2 5.6-.1 7.6 3.4 3.4 8.4 1.1 8.4-3.9 0-5.1-5-7.3-8.3-3.7zM442.2 96.6c-2.4 1.7-3 6.2-1 8.2 3.7 3.7 11.3-1.2 8.8-5.7-.9-1.7-3.9-4.1-5.2-4.1-.2 0-1.4.7-2.6 1.6z"/><path d="M454 104.6c-11.8 3.5-21.7 6.4-21.9 6.4-.3 0 0-.5.7-1.2s1.2-2.4 1.2-3.8c0-3.4-1.7-5-5.2-5-1.8 0-3.3.8-4.4 2.5-1.5 2.3-1.5 2.7 0 5 .9 1.4 2.6 2.5 3.7 2.5 1.7 0 1.8.3.9 2-1.8 3.4-8.5 7.1-17.2 9.6C343.2 141.9 224 174 221 174c-5.6 0-8.4-2.9-7.7-7.9 1.7-11.2 2.8-24.6 2.3-27.5-1.4-7.4-13.3-14.9-22.3-14-10.2 1-26.6 10.4-40.7 23.4-11.1 10.2-14.4 11.5-28.1 11.4-13.1-.1-31.9-3.2-46.5-7.6-9.1-2.8-11.9-3.2-21.5-3.1-27.8.1-42 10.4-48.7 35-3 11.1-2.9 26.9.1 38.3 2.6 10 9.1 24.1 15.1 33.1 13.4 19.8 33.9 39.6 48.3 46.5 10 4.8 16.5 5.9 25 4.4 9.6-1.7 25.7-10 19.4-10-.8 0-4.1-1.4-7.4-3-10.9-5.4-18.8-16.3-21.4-29.3-2.8-13.9 5.4-32.1 17.9-39.4 4.1-2.5 6.1-2.8 22-4 19.8-1.4 21.7-2.1 27.5-10.1 1.9-2.6 6.2-10.2 9.6-16.9 5.9-11.7 6.4-12.2 10.6-13.9 6.5-2.5 11.4-1.3 24 5.8 5.6 3.2 18.1 3.2 28 0 3.9-1.3 53.8-15.5 111-31.7s106.6-30.4 109.7-31.5c3.2-1.1 7-2 8.5-2 6.9 0 15.9 4.8 19.1 10.2 1.8 3 3 3.4 14.5 4.2l6.7.5v-12.2l-8.5-9.2c-6.9-7.5-8.5-9.9-8.5-12.4 0-2.3-.4-3.1-1.7-3-1 0-11.5 3-23.3 6.5z"/><path d="M167.7 239.4c-7.9 2.2-12.7 6.3-16.7 14-3.2 6.2-3.5 7.7-3.8 17.1-.7 17.6 3.8 27.3 15.3 33 5.4 2.7 6.9 3 15 2.9 9.6-.1 15.3-1.7 21.8-6l3.7-2.4v-29h-24v12h12v5.4c0 5.4 0 5.4-4 7-6 2.4-14 2.1-18-.7-5.5-3.6-7.3-7.9-7.8-17.6-.5-10.5.9-16.1 5.2-20.9 2.9-3.2 4-3.6 9.3-4 5.2-.4 6.2-.1 9 2.2 1.7 1.4 3.4 3.7 3.7 5.1.5 2 1.1 2.4 3.4 2 1.5-.2 4.4-.7 6.5-1 4.2-.7 4.6-1.9 2.1-6.8-2.3-4.5-6.3-8.6-10.7-10.9-5-2.5-15.7-3.2-22-1.4zM217 259.7c0 27.5 1.3 34.3 7.7 40.7 5.5 5.6 16.1 7.8 26.8 5.6 5-1 6.8-2 10.6-5.9 2.7-2.6 5.2-6.3 5.9-8.6.8-2.5 1.5-12.6 1.7-27.8l.5-23.7H256v22.5c0 17.2-.3 23.4-1.4 26-3.9 9.3-19.9 8.4-22.5-1.2-.6-2.1-1.1-13.4-1.1-25.6V240h-14v19.7zM286 272.5V305h13v-65h-13v32.5zM313 246v6h19v53h14v-53h20v-12h-53v6zM378.5 266.2c-5.4 14.5-10.8 29.1-12.1 32.5L364 305h13.7l2.8-7.5 2.7-7.5h22.5l2.8 7.5 2.7 7.5h7c6.8 0 7-.1 6.4-2.3-.3-1.2-5.7-15.7-11.9-32.2l-11.3-30-6.5-.3-6.5-.3-9.9 26.3zm19.6-.5c1.7 5.4 3.4 10.4 3.7 11 .3 1-1.5 1.3-7.2 1.3-4.2 0-7.6-.4-7.6-.8 0-1.7 6.9-21.2 7.5-21.2.2 0 1.8 4.4 3.6 9.7zM438 272.4V305h13v-24h12.7l5.6 12 5.6 12h7.1c3.8 0 7-.2 7-.5s-2.9-6.3-6.5-13.5l-6.5-12.9 3.1-2.2c6.4-4.5 8.8-16.2 5-24.4-4.1-8.9-8.9-10.7-29.8-11.3l-16.3-.4v32.6zm31.9-18c1.5 1.4 2.1 3.1 2.1 6.2 0 6.5-3 8.4-13.1 8.4H451v-17.2l8.4.3c6.5.3 8.9.8 10.5 2.3zM50.8 326.4C41.2 329 37 334 37 343.1c0 6.4 2.5 11.1 7.5 14 1.7 1 8 2.8 14 3.9 12.8 2.6 15.9 3.9 18 8 3.5 6.7.8 15.2-5.8 18.3-4 1.9-13.3 2.2-18.9.7-4.6-1.3-9.7-6.3-10.5-10.1-.4-2.4-1.1-2.9-3.4-2.9-3.4 0-3.5 1-1 6.5 3.4 7.4 9.1 10.8 19.7 12 16 1.8 27.4-5.8 27.4-18.5 0-5.4-3.1-11.3-7.4-14-2-1.2-7.9-3-13.3-4.1-5.4-1.1-11.2-2.4-12.9-2.9-6.9-2.3-9.9-9.4-7-16.3 2.3-5.5 8.4-8 18.2-7.5 8.3.4 11.7 2.2 14.9 8.1 1.6 2.9 2.4 3.5 4 3.1 2.8-.9 2.8-.8 1.2-4.6-4-9.5-17.3-14.1-30.9-10.4zM116 326.5c-5.9 1.9-12.5 7.5-15.4 13.4-7 13.7-5.4 34.6 3.4 45.2 7.8 9.6 26.3 11.5 36.8 3.9 4.1-3 9.2-11.6 9.2-15.7 0-1.7-.6-2.3-2.3-2.3-1.9 0-2.6.8-3.6 4.2-2.9 9.8-10 14.4-21.1 13.6-8.1-.6-13.4-4.3-17.5-12.3-2.8-5.5-3-6.6-3-17s.2-11.5 3-17c4.2-8.2 9.4-11.8 17.9-12.3 10-.7 17.1 4 19.8 13 .8 2.7 1.6 3.7 2.6 3.3.7-.3 2-.5 2.8-.5 1.1 0 1-1-.6-5.3-4.7-12.6-18-18.5-32-14.2zM250.9 326.3c-8.1 2.3-13.3 7.1-17.6 16.2-2.4 5.3-2.7 7.2-2.8 16.5 0 12.8 2 19.1 8.3 26.1 5.5 6.2 11.2 8.4 21.2 8.4 12.8-.1 21.4-6.2 26.1-18.4 3.2-8.1 3.1-23.3-.1-31.5-2.7-7.2-8.1-13.3-13.7-15.8-5.5-2.4-15.6-3.1-21.4-1.5zm17.6 5.6c11.5 5.3 17.2 21.9 13.1 38-3.4 13.4-11.8 19.8-24.6 18.9-12.1-.9-19.7-10.1-20.7-25.4-1.4-20.3 7.5-33.4 22.6-33.4 3.3 0 7.2.8 9.6 1.9zM322.9 326.3c-8.1 2.3-13.3 7.1-17.6 16.2-2.4 5.3-2.7 7.2-2.8 16.5 0 12.8 2 19.1 8.3 26.1 5.5 6.2 11.2 8.4 21.2 8.4 12.8-.1 21.4-6.2 26.1-18.4 3.2-8.1 3.1-23.3-.1-31.5-2.7-7.2-8.1-13.3-13.7-15.8-5.5-2.4-15.6-3.1-21.4-1.5zm17.6 5.6c11.5 5.3 17.2 21.9 13.1 38-3.4 13.4-11.8 19.8-24.6 18.9-12.1-.9-19.7-10.1-20.7-25.4-1.4-20.3 7.5-33.4 22.6-33.4 3.3 0 7.2.8 9.6 1.9zM167 359.5V392h5v-31h37v31h5v-65h-5v29h-37v-29h-5v32.5zM377 359.5V392h19.4c20 0 20.6-.1 20.6-4.1 0-.5-7.5-.9-17.5-.9H382v-60h-5v32.5z"/></svg>