<svg xmlns="http://www.w3.org/2000/svg" width="230" height="230" fill="none"><path fill="url(#a)" fill-opacity=".4" fill-rule="evenodd" d="M229.846 121.003c-.157 3.05-.432 6.068-.822 9.051L99.946.976c2.983-.39 6.001-.665 9.051-.822l120.849 120.849ZM89.308 2.881A114.519 114.519 0 0 1 98.7 1.146L228.854 131.3a114.911 114.911 0 0 1-1.735 9.393L89.308 2.881Zm132.066 155.897a114.58 114.58 0 0 0 2.684-7.191L78.413 5.942a114.143 114.143 0 0 0-7.19 2.684l150.151 150.152ZM70.224 9.042a114.442 114.442 0 0 0-7.585 3.543L217.415 167.36a114.301 114.301 0 0 0 3.543-7.586L70.225 9.042ZM227.79 92.447a114.08 114.08 0 0 0-3.518-13.392L150.945 5.729a114.168 114.168 0 0 0-13.392-3.518l90.236 90.236Zm-91.984-90.57A115.12 115.12 0 0 0 123.079.28l106.642 106.642c-.3-4.312-.837-8.558-1.598-12.726L135.805 1.877ZM230 115c0 1.558-.031 3.108-.092 4.65L110.35.092a116.968 116.968 0 0 1 11.22.093L229.815 108.43c.123 2.174.185 4.365.185 6.57Zm-3.149 26.839a113.75 113.75 0 0 1-2.443 8.685L79.476 5.592c2.848-.925 5.745-1.74 8.686-2.443l138.689 138.69Zm-13.158-85.904a114.468 114.468 0 0 1 9.85 20.978L153.087 6.457a114.453 114.453 0 0 1 20.978 9.85l39.628 39.628ZM61.707 13.067a114.844 114.844 0 0 0-7.087 4.04L212.892 175.38a114.623 114.623 0 0 0 4.041-7.087L61.707 13.067ZM212.35 176.251l-158.6-158.6a115.219 115.219 0 0 0-5.896 3.978L208.37 182.147a114.936 114.936 0 0 0 3.978-5.896Zm-4.573 6.715L47.034 22.224a115.466 115.466 0 0 0-6.224 4.904L202.872 189.19a115.182 115.182 0 0 0 4.904-6.224ZM177.851 18.679a115.624 115.624 0 0 1 33.47 33.47l-33.47-33.47Zm24.37 171.274L40.047 27.779a115.722 115.722 0 0 0-5.793 5.336l162.631 162.631a116.462 116.462 0 0 0 5.336-5.793Zm-6.041 6.502a116.166 116.166 0 0 1-5.094 4.779L28.766 38.914a115.697 115.697 0 0 1 4.78-5.094L196.18 196.455Zm-11.999 10.417c2.108-1.59 4.159-3.25 6.15-4.978L28.106 39.669a115.549 115.549 0 0 0-4.978 6.15l161.053 161.053Zm-.809.605L22.523 46.628a115.25 115.25 0 0 0-4.536 6.592L176.78 212.013a115.34 115.34 0 0 0 6.592-4.536Zm-14.618 9.213a114.084 114.084 0 0 1-7.499 3.629L9.681 68.744c1.121-2.549 2.332-5.05 3.63-7.498L168.753 216.69Zm.921-.494L13.804 60.325c1.148-2.12 2.36-4.2 3.635-6.238L175.913 212.56a114.324 114.324 0 0 1-6.238 3.635Zm-9.406 4.551L9.253 69.731a114.18 114.18 0 0 0-3.092 8.036l146.072 146.072a114.317 114.317 0 0 0 8.036-3.092Zm-9.094 3.448a113.945 113.945 0 0 1-7.637 2.236L3.568 86.462c.66-2.582 1.406-5.128 2.237-7.637l145.37 145.37Zm-18.034 4.382a114.165 114.165 0 0 0 9.265-1.863L3.286 87.594a114.419 114.419 0 0 0-1.863 9.265L133.14 228.577ZM.199 108.177c.2-3.406.547-6.772 1.036-10.092l130.68 130.68c-3.32.489-6.686.837-10.092 1.036L.199 108.177Zm-.07 1.344 120.35 120.351a117.159 117.159 0 0 1-9.826.047L.081 119.347a117.004 117.004 0 0 1 .047-9.826Zm.016 11.305 109.029 109.029c-4.204-.21-8.349-.645-12.423-1.295L1.44 133.249a115.432 115.432 0 0 1-1.295-12.423Zm1.579 14.121 93.33 93.329a114.112 114.112 0 0 1-14.723-3.594L5.318 149.669a114.22 114.22 0 0 1-3.594-14.722Zm4.28 16.822a114.399 114.399 0 0 0 9.081 20.209l42.937 42.937a114.378 114.378 0 0 0 20.21 9.082L6.002 151.769Zm11.16 23.703a115.602 115.602 0 0 0 37.364 37.364l-37.364-37.364Z" clip-rule="evenodd"/><defs><linearGradient id="a" x1="46.404" x2="180.57" y1="25.219" y2="209.32" gradientUnits="userSpaceOnUse"><stop stop-color="#ED7B50"/><stop offset=".542" stop-color="#488AEA"/><stop offset="1" stop-color="#2C2C2C"/></linearGradient></defs></svg>